<svg id="Capa_1" data-name="Capa 1" xmlns="http://www.w3.org/2000/svg" viewBox="0 0 117.36 117.36"><defs><style>.cls-1{fill:none;}.cls-2,.cls-3{fill:#262020;}.cls-2{fill-rule:evenodd;}</style></defs><rect class="cls-1" width="117.36" height="117.36" rx="12.14"/><path class="cls-2" d="M292.89,390.61c-.11-.11-.16.06-.16.49s0,.59.16.48a1.19,1.19,0,0,0,.08-.48,1.21,1.21,0,0,0-.08-.49m1.05,1c0,.22.08.32.25.32v-.8l-.17.16-.08.08Zm.25,1.05q-.09,0-.09.24c0,.11,0,.13.09.08s.15,0,.16-.08a.27.27,0,0,0-.16-.24M292.32,402h.33a3.71,3.71,0,0,1,.08-.81,7.56,7.56,0,0,0,.16-1.29v-6.38l-.57.24Zm-2.18-4a3.35,3.35,0,0,0-.16.57v.48a3.44,3.44,0,0,0-.24,1.13c-.05.54-.08.89-.08,1s0,.3-.08.73v1.86c.05.43.08.72.08.89a6,6,0,0,0,.16-1,5.64,5.64,0,0,1,.16-1v-.89a5.89,5.89,0,0,0,.08-1.05v-1.05c.05-.38.08-.62.08-.73Zm4,4,.57-.57v-2.42l.24-.32-.72-3.88-.25.24v2.34c0,.49,0,1.11-.08,1.86s0,1.51-.08,2.26-.11,1.33-.17,1.86v.73l-.23.57Zm-3.71,0a.22.22,0,0,0-.25.24v.25Zm-.25,1.05c-.1-.05-.16,0-.16.24s.06.3.16.25a.28.28,0,0,0,.17-.25.26.26,0,0,0-.17-.24M277,404.83c0-.06,0-.08-.08-.08s-.17,0-.17.08.11.16.17.16.08-.05.08-.16m1.21,0c-.11,0-.16.11-.16.32s.05.24.16.24.16-.08.16-.24-.05-.32-.16-.32m15.91,1.78.25-.33V404.1a1.91,1.91,0,0,0-.09-.48,2.54,2.54,0,0,0-.16-.49Zm-9.77-.33a.14.14,0,0,0-.16-.16c-.06,0-.09.05-.09.16s0,.17.09.17a.15.15,0,0,0,.16-.17m5.81-1.29c-.05-.11-.1,0-.16.24v1.94c.06.27.11.35.16.24a3.66,3.66,0,0,0,.17-1.29,2.38,2.38,0,0,0-.17-1.13m-5.33,1.62a.14.14,0,0,0-.16-.16s-.08.05-.08.16,0,.07.08.07.16,0,.16-.07m-9.29-.33c-.11,0-.16.11-.16.33s.05.24.16.24a.21.21,0,0,0,.24-.24q0-.33-.24-.33m9.78.33c-.17,0-.25.1-.25.32s.08.24.25.24.16-.08.16-.24,0-.32-.16-.32m-8.32.56c0-.11,0-.16-.25-.16s-.24.05-.24.16a.31.31,0,0,0,.49,0m-10.34,0c0-.11-.06-.16-.17-.16a.14.14,0,0,0-.16.16.24.24,0,0,0,.16.08c.11,0,.17,0,.17-.08m27.46.24c-.05-.05-.11,0-.16.08v.9c.05.1.11.13.16.07a.75.75,0,0,0,.16-.56c0-.27-.05-.44-.16-.49m-7.67.73h.32l.08-.08v-.16Zm-21-.24c0-.11-.09-.11-.25,0s-.11.19,0,.24.25,0,.25-.24m18.25,0a.8.8,0,0,0,.16.32c.11.11.19.17.24.17l.25.07v-.56Zm-19.47.72.08.08h.16c.06,0,.09,0,.09-.08l.24-.23v-.25Zm-.48,0c-.11,0-.16.11-.16.33s.05.24.16.24A.21.21,0,0,0,264,409c0-.22-.08-.32-.24-.33M285,409c-.11,0-.16.1-.16.32s.05.24.16.24a.22.22,0,0,0,.25-.24c0-.22-.09-.32-.25-.32m.33.24c-.17,0-.25.11-.25.32s.08.24.25.24.16-.08.16-.24,0-.32-.16-.32m8.31,3a1.22,1.22,0,0,0,.09.32c.05.11.1.16.16.16V409a6.12,6.12,0,0,0-.16,1.21c-.06.59-.09,1-.09,1.21Zm-4.84-.25c-.11,0-.16.12-.16.33s.05.32.16.32.16-.11.16-.32-.05-.32-.16-.33M289,413c-.1,0-.16.08-.16.24s.06.24.16.24a.24.24,0,0,0,0-.48m.33.48c-.17,0-.25.11-.25.32a.22.22,0,0,0,.25.25c.1,0,.16-.08.16-.25s-.06-.32-.16-.32m-3.15-.4c-.06,0-.09.05-.09.16s0,.08.09.08.15,0,.16-.08a.14.14,0,0,0-.16-.16m-27.15,0c-.1,0-.16.08-.16.24s.06.24.16.24.16-.08.16-.24-.05-.24-.16-.24m34.57.72a.3.3,0,0,0-.16.08.25.25,0,0,0-.07.17c-.06,0-.09.11-.09.32l.32-.08.25-.24v-.33Zm-3.47.73s-.05-.08-.16-.08-.16,0-.16.08.11.16.16.16a.14.14,0,0,0,.16-.16m-31.82-.73h.24v-.24Zm28-.08c0,.06,0,.08.08.08a1,1,0,0,0,.08.33c.11.11.19.16.24.16v.16a.24.24,0,0,0,.08.16.83.83,0,0,0,.24-.16.27.27,0,0,0,.09-.32c0-.05-.06-.14-.17-.25a1,1,0,0,1-.24-.32h-.4Zm1,1.94c-.11,0-.17.11-.17.33s.06.24.17.24.16-.08.16-.24-.05-.32-.16-.33m.24.57a.16.16,0,1,0,0,.32c.21-.11.21-.21,0-.32m-29.81-1.94c0,.05-.08.16-.24.32a3.26,3.26,0,0,1-.24.33,4.3,4.3,0,0,0-.49.64c-.21.33-.35.54-.4.65v.32c.11-.11.29-.32.56-.64a6.69,6.69,0,0,1,.57-.73.58.58,0,0,0,.24-.4l.24-.49ZM292,418c-.11,0-.16.11-.16.33s.05.24.16.24a.25.25,0,0,0,.16-.24A.34.34,0,0,0,292,418m-4-.64v.32a.83.83,0,0,0,.16.24v-.56a.07.07,0,0,1-.08-.08l-.08-.08Zm-31.74-.16c-.11,0-.25.11-.41.32a3.94,3.94,0,0,1-.32.4v.25l.16-.08a.27.27,0,0,0,.08-.17.8.8,0,0,1,.16-.32,2.66,2.66,0,0,1,.33-.4m-4.53,4.2a.24.24,0,0,0,.16-.08l.17-.17-.24-.4v-.16Zm2.42-.81c-.05,0-.13.13-.24.4a3.57,3.57,0,0,1-.32.65v.57l.73-1.62Zm-1.21,3.31a.14.14,0,0,0-.16.16c0,.06,0,.09.16.09s.16,0,.17-.09-.06-.16-.17-.16M291.76,425c-.16,0-.24.1-.24.32a.21.21,0,0,0,.24.24c.11,0,.16-.08.16-.24s-.05-.32-.16-.32m-39.18-.57c-.11,0-.16.11-.16.32s.05.25.16.25a.22.22,0,0,0,.24-.25c0-.21-.08-.32-.24-.32m35.71-6.22v.32a.72.72,0,0,1,.08.24,4.4,4.4,0,0,0,.08.57c.05.26.1.59.16,1a5.5,5.5,0,0,1,.24,1,3.09,3.09,0,0,1,.16.56,4.35,4.35,0,0,1,.16.81,6.21,6.21,0,0,1,.25,1c.1.38.18.76.24,1.13a2.48,2.48,0,0,1,.16.73v-.4a3.87,3.87,0,0,0,.08-.57.24.24,0,0,0-.08-.16v-.73a3.33,3.33,0,0,0-.16-.81,4,4,0,0,0-.16-.81c-.06-.27-.14-.59-.25-1a9.88,9.88,0,0,0-.24-1.3,12.22,12.22,0,0,1-.4-1.61Zm-35.87,7c-.11,0-.08.11.08.33a1,1,0,0,0,.48.24c.11,0,.06-.08-.16-.24s-.29-.33-.4-.33m-2.1.33.16-.33.16-.32c.11-.27.21-.56.33-.89s.21-.65.32-1,.19-.6.24-.81V422l-1.21,3Zm41.44.72c0-.05-.06-.07-.16-.08s-.16,0-.16.08c.1.33.21.33.32,0m-42-1.12c0,.05,0,.07-.08.07v.09l-.08.07a2.88,2.88,0,0,1-.08.41,3.86,3.86,0,0,1-.08.72,4,4,0,0,1-.08.73v.41a.22.22,0,0,0-.08.16V428h.32v-.32a2.77,2.77,0,0,0,.08-.73,4.06,4.06,0,0,0,.08-.73v-.56c0-.05.06.06.16.32s.16.3.17.24c-.06-.21-.11-.4-.17-.56a5,5,0,0,1-.16-.56m-.64,3.63c-.11-.05-.16,0-.16.16s.05.13.16.08.16,0,.16-.08a.14.14,0,0,0-.16-.16m.88,1.61c.22-.1.22-.21,0-.32Zm40.88,1c-.05-.1-.08,0-.08.25s0,.35.08.24a.25.25,0,0,0,.16-.24.27.27,0,0,0-.16-.25m1.38,1.3c-.06-.06-.11,0-.17.24v1.7c.06.21.11.26.17.16a2.47,2.47,0,0,0,.16-1.05,2.29,2.29,0,0,0-.16-1.05m0,2.66a2.44,2.44,0,0,0-.17.49,1.54,1.54,0,0,0-.08.32.07.07,0,0,0-.08.08v.17h.33Zm0,2.1V437l-.25.24Zm0,.57c-.17,0-.25.1-.25.32a.27.27,0,0,0-.08.16v.57a.66.66,0,0,1,.08.32,2.75,2.75,0,0,0,.16-.4,3.69,3.69,0,0,0,.09-.41Zm-1.54-.24a4.85,4.85,0,0,0-.24.8,5.56,5.56,0,0,0-.08.81v.49c.05,0,.1-.06.16-.17a.8.8,0,0,0,.16-.32Zm2.34,2.58c-.11,0-.16.08-.16.25s.05.13.16.07.16,0,.17-.07a.28.28,0,0,0-.17-.25m-2.66.57c-.06-.06-.14,0-.25.08s-.1.19,0,.24c.27.16.35.05.25-.32m2.66.81c-.11-.06-.16.05-.16.32s.05.3.16.24a.37.37,0,0,0,0-.56m-44.59-.65a2,2,0,0,0,.16.89v-1.05c-.05,0-.08,0-.08.08s0,.08-.08.08m39.5,2.5a.21.21,0,0,0-.24.24c0,.17.08.25.24.25s.16-.08.16-.25-.05-.24-.16-.24m-38.61-6a4.18,4.18,0,0,0,.08.57c0,.32.11.7.16,1.13s.11.78.16,1.22a7.65,7.65,0,0,1,.09.88,7.07,7.07,0,0,1,.15,1.13,3.35,3.35,0,0,0,.33,1.05l.08.17c0,.05,0,.07.08.07v-.24c0-.43,0-1.15-.08-2.18s-.14-2.21-.24-3.39-.11-2.29-.17-3.31-.1-1.75-.15-2.18a9.91,9.91,0,0,1-.09,1c-.05.48-.1,1-.16,1.53s-.11,1.05-.16,1.54a8.73,8.73,0,0,0-.08,1m-.48,6.22h.24v-.24A3.15,3.15,0,0,0,249,443a2.44,2.44,0,0,0-.15-.56Zm38.77.89c-.11,0-.16.11-.16.33s0,.24.16.24a.21.21,0,0,0,.24-.24c0-.22-.08-.32-.24-.33m-38,1.29c-.11,0-.16,0-.16.17s0,.21.16.16.22-.22,0-.33m.25,1.06a.25.25,0,0,0,.07.16.21.21,0,0,1,.08.16.22.22,0,0,1,.09-.16l-.09-.16a.07.07,0,0,1-.08-.08c0-.06,0-.08-.07-.08v-.09a.24.24,0,0,1-.09.17Zm.4.88v.25a.66.66,0,0,1,.08.24v.08a.07.07,0,0,1,.08.08.23.23,0,0,0,.08.16V448Zm.57,1.54H251v-.16c0-.22-.07-.32-.23-.32Zm35.62.89c-.11,0-.17.08-.17.24s.06.24.17.24a.24.24,0,0,0,0-.48m-35.22-.16a.24.24,0,0,0,.08.16c0,.05.13.16.4.32a2.92,2.92,0,0,0,.57.25v-.25s-.16-.19-.48-.4-.49-.35-.49-.41l-.08.17Zm.48.64a.14.14,0,0,0-.16.16c0,.11.05.17.16.17s.16,0,.16-.09a.26.26,0,0,0-.16-.24m3.31,1.46c-.1,0-.16.08-.16.24s.06.24.16.24.16-.08.16-.24,0-.24-.16-.24m1.86,2.58c-.11,0-.16.11-.16.33s.05.24.16.24a.21.21,0,0,0,.24-.24q0-.33-.24-.33m.33.57c0,.21.05.32.16.32s.27.28.48.48a1.55,1.55,0,0,0,.49.33c.05,0,.13.06.24.16a.66.66,0,0,0,.24.08H259l-.48-.48a2.06,2.06,0,0,0-.33-.25,2.24,2.24,0,0,1-.4-.32.83.83,0,0,1-.24-.16c-.16-.05-.24-.11-.24-.16Zm-4.29-11.8c.06,0,.11.09.17.25a.6.6,0,0,1,.07.24,4.6,4.6,0,0,1,.25.73c.11.37.21.78.32,1.21a8.48,8.48,0,0,1,.4,1.13,3.89,3.89,0,0,1,.17.72,1.09,1.09,0,0,0,.24.41,1.76,1.76,0,0,1,.32.4.21.21,0,0,0,.08.16.23.23,0,0,0,.08.16c.06,0,.11.09.16.25a.82.82,0,0,0,.17.32,1.24,1.24,0,0,1,.16.41c.11.21.19.32.24.32a1,1,0,0,1,.16.57c0,.15.06.24.16.24l5.09,4.12a1.7,1.7,0,0,1,.49.24c.27.11.56.24.88.4a6.67,6.67,0,0,1,1.06.41c.37.1.69.19,1,.24l.72.24a5.5,5.5,0,0,1,1,.24,4.4,4.4,0,0,1,1,.25,3.49,3.49,0,0,0,.57.07l1.13.09h2.74l1.14-.09a3.31,3.31,0,0,0,.8-.23c.43-.22.89-.44,1.38-.65s.94-.51,1.37-.73a7.56,7.56,0,0,1,1.05-.4l.65-.33a4.37,4.37,0,0,0,.81-.56,4.72,4.72,0,0,0,.56-.4l.8-.65a8.16,8.16,0,0,0,.74-.65,2.12,2.12,0,0,1,.48-.4c.16-.16.37-.41.65-.73l.8-1q.5-.48.81-.81l.4-.48L289,438.35v-8.08a6.1,6.1,0,0,0-.16-.72c-.05-.43-.08-.7-.08-.81v-.48a.27.27,0,0,0-.08-.17v-.32a.92.92,0,0,1-.08-.4v-1.14c-.06-.26-.13-.67-.24-1.21l-.33-1.61c-.1-.54-.21-1-.32-1.45s-.08-.71-.08-.82-.19-.62-.41-1.21-.45-1.29-.72-1.94-.54-1.26-.81-1.85a12.09,12.09,0,0,1-.4-1.21,10.57,10.57,0,0,0-.73-1.14c-.38-.53-.62-.89-.73-1l-.72-.73a10.64,10.64,0,0,0-.73-.89,1.4,1.4,0,0,0-.41-.4l-.48-.49a.66.66,0,0,0-.49-.16,5.64,5.64,0,0,0-1-.16c-.48-.11-.78-.16-.88-.17l-.25-.24a.92.92,0,0,1-.16-.4,2.52,2.52,0,0,1-.08-.49h-4.76c-.22.06-.62.14-1.22.25a11.78,11.78,0,0,0-1.85.32l-1.86.32-1.21.24q-.33.17-1.38.57c-.7.21-1.18.37-1.45.48a.25.25,0,0,1-.08.17.19.19,0,0,0-.08.16h-.57a.24.24,0,0,0-.16.08l-.16.16a.24.24,0,0,0-.16.08,5.56,5.56,0,0,0-.73.57,2.78,2.78,0,0,0-.65.56,4.58,4.58,0,0,0-.72.32,1.52,1.52,0,0,0-.65.41,2.12,2.12,0,0,0-.48.4c-.17.22-.35.46-.57.73a9.53,9.53,0,0,0-.64.73l-.49.48c-.11.22-.35.62-.73,1.21s-.62.89-.72,1.05c-.06,0-.08.14-.08.41a.64.64,0,0,1-.08.4,4.6,4.6,0,0,0-.57,1.13,12.29,12.29,0,0,1-.65,1.29.22.22,0,0,1-.08.17.24.24,0,0,1-.16.08,2.85,2.85,0,0,1-.08.4,2.94,2.94,0,0,1-.16.41,1.54,1.54,0,0,1-.08.32c-.06.16-.11.24-.16.24a1.84,1.84,0,0,1-.16.41,2,2,0,0,0-.09.4,1.78,1.78,0,0,1-.16.57,5,5,0,0,1-.24.72c-.11.27-.22.54-.32.81a1.09,1.09,0,0,1-.17.41,3.57,3.57,0,0,1-.24.8,6.55,6.55,0,0,1-.24.81,10.68,10.68,0,0,0-.16,1.21c-.06.54-.14,1.1-.24,1.69a13.4,13.4,0,0,1-.25,1.54c0,.49-.08.78-.08.89s0,.16-.08.49v1.13a10.66,10.66,0,0,1-.08,1.21v2.58c0,.6.08,1.24.08,1.94v2c.06.6.08,1,.08,1.29m6.39,13.73h.24v-.23h-.24Zm33,.81a3.49,3.49,0,0,0,.07.57,1.81,1.81,0,0,1,.16.56l.33-.56v-6.62l-.33.48c0,.06,0,.32-.07.81s0,1.05-.09,1.69,0,1.19-.07,1.78Zm-32.48-.81c-.11,0-.16.09-.16.25s.05.24.16.24.16-.08.16-.24-.05-.25-.16-.25m-2.58.49c.05-.11,0-.16-.17-.16a.14.14,0,0,0-.16.16c.05.11.11.16.16.16s.17-.05.17-.16m.4.32c.05-.1,0-.16-.16-.16s-.14.06-.08.16,0,.16.08.16a.14.14,0,0,0,.16-.16m.24,0c-.11,0-.16.11-.16.33s.05.24.16.24.16-.08.16-.24-.05-.32-.16-.33m20.36,0a1,1,0,0,0,.72.57,1.45,1.45,0,0,0,.33-.08,2,2,0,0,0,.32-.24v-.25c0-.21-.08-.32-.24-.32h-.65a.67.67,0,0,1-.24.16,1.09,1.09,0,0,0-.24.16m-20.12.25c-.1,0-.16.11-.16.32s.06.24.16.24.16-.08.16-.24-.05-.32-.16-.32m.49.56c.05-.11,0-.16-.08-.16a.14.14,0,0,0-.16.16c.05.11.1.16.16.16s.08-.05.08-.16m32.15,2.1c0-.1-.08-.16-.24-.16s-.14.06-.08.16,0,.16.08.16a.25.25,0,0,0,.24-.16m-42.25-13.49c-.05-.16-.16-.46-.32-.89s-.35-.88-.57-1.37-.32-.94-.48-1.37-.19-.81-.24-1,0-.51-.09-1.05-.11-1.21-.16-1.86-.11-1.35-.16-1.94V432.7c0-.22.05-.76.16-1.62s.19-1.48.25-1.86A1.09,1.09,0,0,0,247,429l.16-.32a1.4,1.4,0,0,0-.08-.73,7.12,7.12,0,0,1-.08-.81l.16-.65.16-.64a.92.92,0,0,0,.08-.4,2.19,2.19,0,0,1,.16-.48,2,2,0,0,0,.24-.33,1.19,1.19,0,0,0,.16-.48,3,3,0,0,0,.17-1c.11-.59.21-.92.32-1s.11-.19.32-.41.43-.4.49-.4c0-.22.08-.3.08-.25l.08-.24c0-.16.16-.53.32-1.13.06,0,.16-.13.33-.4a6.92,6.92,0,0,0,.4-.65c0-.05,0-.29.08-.73a2.51,2.51,0,0,1,.25-.8,2.75,2.75,0,0,1,.4-.73,6.49,6.49,0,0,0,.72-1c.27-.37.51-.7.73-1s.35-.54.41-.65l.56-.56c.32-.33.65-.65,1-1s.7-.72,1-1.05.56-.64.72-.81a9.44,9.44,0,0,0,1.14-1,11.24,11.24,0,0,1,1.37-1.13c.16-.11.38-.27.65-.48a7.44,7.44,0,0,1,1-.57c.32-.21.59-.4.8-.56a1.23,1.23,0,0,1,.57-.33c.16-.11.56-.32,1.21-.65a22.83,22.83,0,0,1,2.1-1.05l2.27-1a10.82,10.82,0,0,1,1.69-.73,5,5,0,0,1,1.13-.16c.7-.06,1.19-.11,1.45-.16a6.86,6.86,0,0,0,1.14-.17c.53-.1.86-.15,1-.16h6.62c.16.11.48.3,1,.57a10.2,10.2,0,0,1,1.62.81c.53.26,1.05.54,1.53.8s.89.43,1.05.49a5.23,5.23,0,0,0,.56.4,4.11,4.11,0,0,1,.73.49,2.78,2.78,0,0,1,.4.24,2.44,2.44,0,0,1,.41.32.29.29,0,0,0,.32.33l.41.24.16-.08a.27.27,0,0,0,.08-.16c.05-1.46.11-3,.16-4.69s.11-3.28.16-4.69v-2.34c0-1,0-1.94.08-2.75a15.67,15.67,0,0,0,.08-2.91h6.55c0,.93,0,1.78-.08,2.59a21,21,0,0,0,0,2.75v1.61c.05.87.08,1.81.08,2.83s.08,1.89.08,2.75.08,1.4.08,1.61V406a1.24,1.24,0,0,1,.08-.49c.05-.16.11.06.16.65s.08,1.7.08,3.31.05,4.07,0,7.35-.13,7.57-.24,12.85-.27,11.77-.48,19.63v4.77l.24.8a4.82,4.82,0,0,1-.08.89l-.16,1v1a11.93,11.93,0,0,1,.08,1.38,14.05,14.05,0,0,1-.08,1.44v.89a3.09,3.09,0,0,1-.09.57,2.61,2.61,0,0,1-.16.57l-.24.16c0,.05-.08.1-.24.16a.8.8,0,0,1-.32.16,2.85,2.85,0,0,1-1.13-.08,2.6,2.6,0,0,0-1,0,6.49,6.49,0,0,1-1.06.16,8,8,0,0,0-1.05.16h-1.53c-.16,0-.24-.1-.24-.32v-.73a1.13,1.13,0,0,1,.08-.4,1,1,0,0,1,.16-.41v-9.12l-.24-1.13h-.25c-.11,0-.16.08-.16.24a4.44,4.44,0,0,0-.48.64c-.22.33-.46.68-.73,1.06l-.65,1c-.21.32-.34.53-.4.64s-.27.38-.48.65a9,9,0,0,1-.73.8,10.67,10.67,0,0,1-.73.81l-.4.4a1.8,1.8,0,0,1-.49.49c-.21.16-.48.35-.8.57s-.57.43-.9.65a2.51,2.51,0,0,1-.64.4l-1.13.73a5.78,5.78,0,0,1-1.21.64l-.65.32c-.27.11-.56.24-.89.41l-1,.48a3.09,3.09,0,0,1-.56.16.22.22,0,0,1-.16.09l-.08.08a.37.37,0,0,1-.25.07q-.08.09-.48.09a3.51,3.51,0,0,0-.49-.09,1.94,1.94,0,0,1-.8.17,6,6,0,0,1-.81.16h-7.27a2.35,2.35,0,0,0-.89-.33,8.51,8.51,0,0,1-.89-.24h-.49a5.26,5.26,0,0,0-.88-.16L261,462a1.83,1.83,0,0,1-.65-.16l-.8-.32-.81-.33a3.94,3.94,0,0,1-.4-.32l-.81-.57c-.32-.26-.7-.56-1.13-.88s-.76-.62-1.13-.89l-.65-.65a1.78,1.78,0,0,1-.49-.49l-.72-.88-.73-.89c-.22-.32-.38-.57-.48-.73a3.29,3.29,0,0,1-.4-.56,11.29,11.29,0,0,0-.65-1.21,9,9,0,0,0-.73-1.21c-.22-.44-.41-.79-.56-1.06a1.45,1.45,0,0,1-.25-.4l-.24-.57a3.09,3.09,0,0,0-.16-.64,1.44,1.44,0,0,1-.08-.49.24.24,0,0,0-.09-.16l-.15-.16c0-.11-.09-.24-.25-.4a1.32,1.32,0,0,1-.16-.41" transform="translate(-237.32 -367.71)"/><path class="cls-2" d="M341,405.63c-.11,0-.16.12-.16.33s.05.24.16.24a.21.21,0,0,0,.24-.24q0-.31-.24-.33m1.29.74h.24v-.57h-.24Zm-35.95-2.92c-.05-.05-.11.06-.16.33s0,.38.08.32a.31.31,0,0,0,.24-.32.34.34,0,0,0-.16-.33M341,406.76c-.11,0-.16.12-.16.33s.05.24.16.24a.21.21,0,0,0,.24-.24q0-.31-.24-.33m.32.33c-.16,0-.24.11-.24.32a.22.22,0,0,0,.24.25c.1,0,.16,0,.16-.17s-.06-.35-.16-.4m-35.14-2.34c-.11,0-.16.08-.16.24s0,.24.16.24.16,0,.16-.16a.31.31,0,0,0-.16-.32M343.38,409c-.11-.06-.16,0-.16.08s0,.11.16.16q.24-.24,0-.24m-3.31-1.46c-.06-.05-.11,0-.16.09v.88c0,.11.1.16.16.16a.8.8,0,0,0,.16-.56.84.84,0,0,0-.16-.57m-33.45-2.42c-.05,0-.11.08-.16.24v1.13c.05.17.11.22.16.17s.16-.27.16-.65a1.71,1.71,0,0,0-.16-.89m33.13,7.6c-.11,0-.17.05-.17.16s.06.07.17.07.15.06.16,0a.51.51,0,0,0-.16-.23m-35.87-1.94c-.11,0-.19.1-.24.32s.05.32.16.32.16,0,.16-.24,0-.35-.08-.4m2.66,1c-.05,0-.11,0-.16.17v1c.05.1.11.13.16.07a1.24,1.24,0,0,0,.08-.56,1.61,1.61,0,0,0-.08-.65m34.66,2c-.06-.1-.11,0-.16.25v1.86c0,.26,0,.34.08.24a2.42,2.42,0,0,0,.16-1.13,2.6,2.6,0,0,0-.08-1.22m-.08,3c-.11,0-.16,0-.16.08s.05.14.16.08.16.06.16,0,0-.1-.16-.16m-1.37-3.15c-.06-.16-.11,0-.17.49a15.09,15.09,0,0,1-.08,1.53v1.62c.06.43.11.56.16.4a2,2,0,0,0,.09-.73,9.19,9.19,0,0,0,0-2.42Zm-33.29,1a1.41,1.41,0,0,0,.08.32,1,1,0,0,1,.17.33,437081376284.41,437081376284.41,0,0,1,.32.16,4.55,4.55,0,0,1,.24-.89,5.66,5.66,0,0,0,.24-1,4.56,4.56,0,0,0-.4-.57,4.65,4.65,0,0,1-.4-.64.22.22,0,0,0-.09-.16c-.05,0-.08-.05-.08-.16a.07.07,0,0,0-.08-.08Zm36.92-3.71-.08.16v2.1c.05.81.08,1.59.08,2.34,0,.92,0,1.86.08,2.83l.16.81v-1.7a6.68,6.68,0,0,0,.08-1.05v-2.75a6,6,0,0,0,.08-1v-.49c0-.11,0-.43-.08-1a3.42,3.42,0,0,0-.08-1,.78.78,0,0,0-.24.57Zm-3.8,8.88a.27.27,0,0,0,.08.17.25.25,0,0,0,.17.07v-.72a.27.27,0,0,1-.17.08.07.07,0,0,0-.08.08l-.08.16Zm1.46-.16v.65a9.79,9.79,0,0,1,.08,1.29,10.66,10.66,0,0,1,.08,1.21l.08.57v-3.64l-.16-.16a.21.21,0,0,1-.08-.16Zm.4,5.49c-.11,0-.16.11-.16.33s.05.32.16.32.16-.1.16-.32-.06-.33-.16-.33M304,420.34c-.06-.06-.08,0-.08.24s0,.33.08.33a.8.8,0,0,0,.08-.33c0-.16,0-.24-.08-.24m38.85,4.93v.32a.65.65,0,0,1,.09.32,3.35,3.35,0,0,1,.16.57c.05.27.08.43.08.48v-1.69Zm-3.95,1.13q-.09,0-.09.24v.49l.17.48c.11.11.19.16.24.16l-.17-.64c-.1-.44-.15-.68-.15-.73m-31.19-6.22a5.34,5.34,0,0,1-.08.8v.65a2.93,2.93,0,0,1,.16.81,5.15,5.15,0,0,0,.17.89v-.73c.05-.38.08-.62.08-.73v-1.45a7.45,7.45,0,0,0-.16-.89,3.76,3.76,0,0,0-.17-.88Zm31.67,8.16c-.11-.06-.16,0-.16.16a.25.25,0,0,0,.16.24c.27-.11.27-.24,0-.4m-33.12-4.93c-.16,0-.24.11-.24.32s.08.32.24.32.16,0,.16-.24-.05-.35-.16-.4M343.3,428c-.06,0-.08.14-.08.41s0,.3.08.24c.27-.16.27-.38,0-.65m-35.22-4.2c0-.05,0,0-.08.24v1.54a1.28,1.28,0,0,0,.16-.81,1.77,1.77,0,0,0-.08-1m32.8,5.17a.61.61,0,0,0,.08.32v.89a2.58,2.58,0,0,0,.16.73v-2a2.28,2.28,0,0,1-.16-.64v-.65a2.34,2.34,0,0,1-.08.48V429Zm2.82,3.31c-.1-.1-.19-.05-.24.16s.05.28.16.33a.22.22,0,0,0,.25-.24c.05-.17,0-.25-.17-.25m-.08,1.14c-.05-.06-.08,0-.08.08s0,.16.08.16.16,0,.16-.09,0-.1-.16-.15m-38.29-5.17c-.11-.06-.16.1-.16.48s.05.51.16.4c.11.06.16,0,.16-.24a1.1,1.1,0,0,0-.16-.64m38,5.49-1-2.91v.65a4.71,4.71,0,0,1,.08.88v.89a4.74,4.74,0,0,1,.08.49v.4Zm-4-1.46a2.54,2.54,0,0,0-.16.49,2.67,2.67,0,0,0-.09.48,3.18,3.18,0,0,0-.15.73v.73l.72.08a5.48,5.48,0,0,0-.08-.73v-.73s0-.21-.08-.48a2.61,2.61,0,0,0-.16-.57m-31.51-1.94c-.1-.05-.16.11-.16.49s.06.46.16.4.17-.19.17-.4a.68.68,0,0,0-.17-.49M304,430c-.11,0-.16,0-.16.24a.34.34,0,0,0,.16.33c.16,0,.24-.08.24-.25s-.08-.32-.24-.32m4,1.61c-.11-.1-.16,0-.16.25s.05.3.16.24a.33.33,0,0,0,.08-.24c0-.16,0-.25-.08-.25m34.41,3.08c-.05-.06-.11,0-.16.24v1.29c0,.22,0,.3.08.25a1.73,1.73,0,0,0,.16-.89,2.84,2.84,0,0,0-.08-.89m-1.21-1.21c0-.06,0,.07-.08.4v2.34a4,4,0,0,0,.16-1.37,3.32,3.32,0,0,0-.08-1.37m2.66.8c-.05-.11-.1,0-.16.33v2c0,.32,0,.43.09.32a4.32,4.32,0,0,0,.16-1.37,2.65,2.65,0,0,0-.09-1.3m-39.66-2.5c-.16,0-.24.11-.24.32a.21.21,0,0,0,.24.24c.11,0,.16-.08.16-.24s-.05-.32-.16-.32m36.92,4.69c-.11,0-.16.1-.16.32s0,.24.16.24.16-.08.16-.24-.05-.32-.16-.32m1.21.56c-.11-.05-.16,0-.16.25s.05.31.16.31c.11-.26.11-.45,0-.56m-38.13-3.31c.11,0,.16-.08.16-.24a2.41,2.41,0,0,0-.08-.49c0-.21,0-.35-.08-.4Zm39.18,8.16c-.11-.06-.16,0-.16.24a.52.52,0,0,0,.16.4c.16,0,.24-.1.24-.32s-.08-.32-.24-.32m.48,0c-.05-.06-.07,0-.07.32s0,.32.07.32c.22-.32.22-.54,0-.64m-3.55,2.74c-.05-.11-.08,0-.08.33s0,.48.08.48.16-.19.16-.4-.05-.35-.16-.41m-32.88-2.58a.48.48,0,0,1,.08.32,1.09,1.09,0,0,0,.16.24.32.32,0,0,1,.09-.24v-.08a.24.24,0,0,0,.08-.16c-.06,0-.08,0-.08-.08v-.32c0-.06-.06-.09-.17-.09a.83.83,0,0,1-.16-.24Zm-2.42-1.86c-.11,0-.19.11-.25.49s.06.51.17.4.16-.11.16-.32a.66.66,0,0,0-.08-.57m32.31,6.63c.22,0,.32-.11.32-.33v-.16h-.32ZM309,443.68a.53.53,0,0,1,.08.33c.05.11.1.21.16.32v-.24a.27.27,0,0,0,.08-.17.84.84,0,0,1-.08-.16v-.08a.72.72,0,0,0-.08-.24l-.16-.32Zm-1,.08a1.11,1.11,0,0,0,.08.33.74.74,0,0,1,.16.4v-.89a.79.79,0,0,0-.08-.32L308,443Zm30.45-1.29V444c.05.7.08,1.1.08,1.2v.73a8.17,8.17,0,0,0,.08,1.06,6.6,6.6,0,0,1,.08,1.05,4.85,4.85,0,0,0,.17.72.83.83,0,0,0,.15-.24.46.46,0,0,0,.17-.32v-.89c-.05-.27-.11-.76-.17-1.46s-.1-1.53-.15-2.34-.11-1.56-.17-2.26-.08-1.26-.08-1.53c0,.16,0,.59-.08,1.29a9.1,9.1,0,0,1-.08,1.45m-30,2.51c-.11,0-.16.13-.16.4s.05.3.16.24.17-.38,0-.64m1,.48a2.34,2.34,0,0,0,.08.48,1.22,1.22,0,0,1,.16.49.29.29,0,0,0,.08-.24v-.65a2.37,2.37,0,0,1-.24-.33,1.29,1.29,0,0,1-.08-.39Zm-.73.48c-.1-.05-.19,0-.24.17s0,.16.17.16c.21-.16.23-.27.07-.33m29.41,4v-.33l-.32-.08ZM309.94,447c-.11,0-.17.1-.17.32s.06.32.17.32.16-.1.16-.32-.06-.32-.16-.32m-4.69-3.72c0,.11,0,.44.08,1a9.5,9.5,0,0,0,.32,1.13l.25.73v-1.29a2.88,2.88,0,0,0-.08-.41,4.15,4.15,0,0,0-.08-.73c-.06-.27-.11-.51-.17-.72a3.87,3.87,0,0,1-.08-.57.47.47,0,0,0-.16-.32.79.79,0,0,1-.08-.32Zm4.85,4.36c-.11,0-.16.11-.16.32s.05.25.16.25.24,0,.24-.16a.38.38,0,0,0-.24-.41m.32,1.13c-.11,0-.16,0-.16.17a.14.14,0,0,0,.16.16c.05,0,.08,0,.08-.09a.36.36,0,0,0-.08-.24m-4.2-2a1.21,1.21,0,0,0,.08.49.92.92,0,0,0,.08.4v-.89a.66.66,0,0,1-.08-.24.33.33,0,0,1-.08-.24Zm2.18,2.35c-.11,0-.16.11-.16.32s.05.24.16.24.16-.08.16-.24-.05-.32-.16-.32m1.29.48c-.11-.05-.16,0-.16.08a.14.14,0,0,0,.16.16c.11-.05.17-.11.17-.16s-.06-.08-.17-.08m-1,.08c-.12,0-.2.11-.25.32s.05.33.16.33.16,0,.16-.24,0-.36-.07-.41m31.34,4q-.33,0-.33.24v.33H340ZM306.54,449a.69.69,0,0,0,.08.25.6.6,0,0,1,.09.24l.07-.16s0-.08-.07-.08V449a.68.68,0,0,0-.09-.32v-.32c0,.16,0,.27-.08.32Zm3.23,2.19c-.1-.06-.16,0-.16.24s.06.35.16.4.17-.1.17-.32-.06-.32-.17-.32m.25.24c-.11,0-.16.11-.16.32s.05.32.16.32.16-.1.16-.32-.06-.32-.16-.32m26.25,3.47c0-.11-.14-.11-.24,0s-.06.19,0,.25c.27,0,.35-.09.24-.25m5.66-1.45.24.08a.66.66,0,0,0-.08-.24v-1.54a6.27,6.27,0,0,0-.08-1.21Zm-6,1.61c-.11,0-.16.11-.16.33s0,.24.16.24.16,0,.16-.16-.05-.35-.16-.41m-1.45-.16-.17.16a.27.27,0,0,0-.08.17l.57-.25-.16-.08Zm7.59-.16c-.11-.05-.19,0-.25.16a.35.35,0,0,0,.17.33c.16,0,.24-.08.24-.25s0-.24-.16-.24m-13,.41.08-.33H329Zm13.25-2.67c-.05-.11-.05,0,0,.4s.21.7.32,1.13.3.73.41,1.05.18.41.24.24,0-.21-.08-.48a9,9,0,0,1-.32-.89,4.46,4.46,0,0,0-.41-.88,1.78,1.78,0,0,1-.16-.57m-27.95,2.1c.05-.11,0-.16-.16-.16s-.14-.06-.09,0c.06.37.14.43.25.16m.48.32c.06-.05,0-.08-.16-.08s-.22,0-.16.08c.11.33.21.33.32,0m27.15.73c-.11-.11-.17-.06-.17.16s.06.35.17.4.24-.07.24-.24-.08-.32-.24-.32m-7.84,1c0-.05-.05-.08-.16-.08s-.06,0,0,.08,0,.16.08.16.08,0,.08-.16m-26.5-2.34a.07.07,0,0,0,.08.08.6.6,0,0,0,.09.24c.1.05.16.11.16.16v-.4a.6.6,0,0,0-.08-.24.48.48,0,0,1-.17-.33.07.07,0,0,1-.08.08v.41Zm34.82,2.1c-.11-.11-.16-.09-.16.08a.25.25,0,0,0,.16.24c.05,0,.08-.05.08-.16s0-.16-.08-.16m-24.31-1.13a.32.32,0,0,0,.08.24l.16.16a.24.24,0,0,0,.16.08h.57l.24-.24Zm4.84,1.29,1.78-.73h-.56a1.35,1.35,0,0,0-.65,0,2.84,2.84,0,0,1-.57.08.69.69,0,0,0-.48.16Zm-8.48-1.46q-.24,0-.24.33c0,.21.08.32.24.32s.16,0,.16-.24-.05-.35-.16-.41m14.06,2.11-.24.24h.16l.08.08.16-.16c.05-.11.11-.16.16-.16ZM315,455.8a.14.14,0,0,0-.16-.16c-.11,0-.13.05-.08.16s0,.16.08.16.11,0,.16-.16m-4.44-.56c0-.11-.05-.17-.16-.17s-.05.06,0,.17,0,.16.08.16.08-.06.08-.16M343.3,451v1.78c.05.71.11,1.4.16,2.1s.08,1.24.08,1.78.08.73.08.73l.32.73v-.89c.06-.49.09-.81.09-1v-1.69c0-.16,0-.49-.09-1s0-1.13-.07-1.78-.11-1.26-.17-1.85a6.82,6.82,0,0,0-.08-1.3,5.24,5.24,0,0,0-.08-.72,3.15,3.15,0,0,0-.16-.81c0,.21,0,.56-.08,1.05V451ZM342,457.1c-.06-.11-.08,0-.08.24s0,.35.08.4a.58.58,0,0,0,.16-.4c0-.16-.06-.24-.16-.24m2.18,1c-.06,0-.11.1-.16.32v.8c.05.27.1.52.16.73s.1.33.16.33.08-.11.08-.33a1.79,1.79,0,0,0,0-.73,3.53,3.53,0,0,0-.08-.8c-.06-.22-.11-.32-.16-.32m-15.59.56a.38.38,0,0,0-.33,0c-.11.06-.11.11,0,.16a1,1,0,0,0,.41-.08c.1,0,.08-.08-.08-.08m-1-1a5.61,5.61,0,0,0-.65.08,8.56,8.56,0,0,0-1.05.24,6.72,6.72,0,0,0-1.05.24l-.73.25a.65.65,0,0,0-.48.16.24.24,0,0,1-.16-.08.27.27,0,0,0-.17-.08h.41l3.64-.65Zm-8.32.81c.05-.11,0-.16-.16-.16s-.14.05-.09.16.09.16.25,0m-2.18-.08,1.21.16v-.16Zm-2.67-.32v-.25a3.19,3.19,0,0,0-.81-.57,12.45,12.45,0,0,0-1.13-.8,4.23,4.23,0,0,0-.65-.41,2,2,0,0,0-.8-.32h-.17l.49.48Zm10.66,1.12c0-.1-.05-.15-.16-.16s-.08.06-.08.16.11.17.16.17.08-.06.08-.17m5,.33a1.07,1.07,0,0,0-.32.08,1.45,1.45,0,0,1-.33.08l.17.08H330a.24.24,0,0,0,.16-.08,1,1,0,0,1,.24-.16Zm-5.65-.4c-.17,0-.24.1-.24.32s.07.24.24.24.16,0,.16-.16-.06-.35-.16-.4m4.52,1.13c0-.11,0-.17-.08-.17s-.08,0-.08.08c0,.27.05.3.16.09m-18.66-2.83a1.41,1.41,0,0,0,.16.24,1.09,1.09,0,0,0,.16.24.23.23,0,0,1,.16.08l.41.41a1.86,1.86,0,0,0,.48.24.9.9,0,0,1,.41.16,1.54,1.54,0,0,0,.32.08v-.4a2.81,2.81,0,0,0-.4-.33,1.72,1.72,0,0,0-.33-.24,1,1,0,0,0-.32-.24.72.72,0,0,1-.32-.08.67.67,0,0,0-.33-.08.24.24,0,0,1-.16-.08ZM328,460.08c-.11,0-.16.11-.16.33s.05.24.16.24.16,0,.16-.16-.05-.35-.16-.41m-7.35-.64a10.49,10.49,0,0,0-1.53-.08h-1.06l-.32.32h.32a8.5,8.5,0,0,0,1.38.08l1-.08a2.34,2.34,0,0,0,.48-.08,2.9,2.9,0,0,1,.49-.08h-.16c-.16,0-.25,0-.25-.08Zm-18.58-28.6v-1.21c0-.11,0-.41-.08-.89s0-1.11-.08-1.7a15.61,15.61,0,0,0-.08-1.61v-1.94c.05-.6.08-1.24.08-1.94s.08-1.48.08-2.18v-3.31c0-.81,0-1.65-.08-2.51s0-1.75-.08-2.5v-1.62a1.16,1.16,0,0,0,.16-.4,2.41,2.41,0,0,0,.08-.49v-1.45A8.59,8.59,0,0,0,302,406a7.4,7.4,0,0,0-.08-1.13v-2.42a.24.24,0,0,0,.16-.09l.16-.16a.79.79,0,0,1,.57-.16,1.3,1.3,0,0,1,.64,0h2a10.15,10.15,0,0,1,1.38.08h1.21a.24.24,0,0,1,.16.08.22.22,0,0,0,.16.09h.16c.16,0,.25.1.25.32v1.13l-.33,3.39c0,.11,0,.38-.08.81s0,.8-.08,1.29a11.17,11.17,0,0,1-.08,1.29v.73a5.52,5.52,0,0,1-.08.64v1.22c0,.27.08.43.08.48l1,19v.32l.89,12.28a5.4,5.4,0,0,0,.08.72,5.55,5.55,0,0,1,.24,1.14c.11.38.21.77.32,1.21s.19.64.25.8l.4.9c.22.42.37.78.48,1a3.33,3.33,0,0,1,.65.65,4.83,4.83,0,0,0,.73.65q0,.08.24.24l.64.32a3,3,0,0,1,.73.41,1.87,1.87,0,0,1,.41.24l.24.24a.8.8,0,0,0,.32.16,9.7,9.7,0,0,0,.89.49,3.54,3.54,0,0,1,.73.32,5.66,5.66,0,0,1,1,.24l1.29.25H320l.17.08h.07l1.7.16h1.21c.17-.06.46-.13.89-.24l1.38-.33c.53-.16,1-.29,1.53-.4a5.4,5.4,0,0,0,1.05-.32,1.22,1.22,0,0,0,.32-.09l.65-.32.56-.32a1.42,1.42,0,0,1,.41-.16,1.55,1.55,0,0,1,.64-.08h.57a1.66,1.66,0,0,0,.4-.33,1.17,1.17,0,0,1,.41-.24,5.66,5.66,0,0,0,.4-.49,5.47,5.47,0,0,0,.57-.64l.56-.56c.22-.22.35-.36.41-.41a6.54,6.54,0,0,1,.48-.73,8.71,8.71,0,0,1,.65-.8c0-.22.16-.65.32-1.3s.43-1.32.65-2l.56-1.86a6.08,6.08,0,0,0,.24-.88l.25-11v-.49a5.31,5.31,0,0,0,.08-.72A5.42,5.42,0,0,0,337,430a2.13,2.13,0,0,1,.08-.73v-1.61c.05-1,.08-2,.08-3.07v-3c0-1,.08-1.51.08-1.61v-3.72c.05-.81.08-1.56.08-2.26s.08-1.19.08-1.46v-1.94l-.16-5.49v-.49a.22.22,0,0,1,.08-.15.69.69,0,0,1,.08-.25V404a.21.21,0,0,0,.08-.16c0-.05,0-.08-.08-.08s0,0,0-.08.08-.16.08-.65a2,2,0,0,1,.08-.8L339,402h2.19c-.06,0,0,0,.16.08a3,3,0,0,1,.65.08,1.6,1.6,0,0,1,.56.09h.33c-.06,0,.05,0,.32,0s.4-.06.4,0l.73.56v.56a9.8,9.8,0,0,0,.08,1.13c.05.49.11,1.05.16,1.7l-.16,2.42a.73.73,0,0,0-.24.49l.08-.08h.08c0-.06,0-.08.08-.08v1.78a.72.72,0,0,0,.08.24.66.66,0,0,1,.08.24.72.72,0,0,1-.08.32,2.94,2.94,0,0,0-.16.41c-.06.21-.11.4-.16.56a1.63,1.63,0,0,0,.24.57c.16.37.27.56.32.56l-.56.89a.82.82,0,0,0-.08.4v2.51a3.56,3.56,0,0,1,.08.81v.8c.05.22.07.36.08.41v1.21c0,.65,0,1.35-.08,2.1v6.06c.05,1.45.07,3,.08,4.69s.08,3.22.08,4.68v3.39a7,7,0,0,1,.08,1.05,6.24,6.24,0,0,1-.08,1v.65l1,14.14c0,.05,0,.4.08,1.05a9.09,9.09,0,0,1,.16,1.05.24.24,0,0,1-.08.16v.24a1.34,1.34,0,0,1-.24.56,5.91,5.91,0,0,0-.25.57c-.1,0-.21.08-.32.24s-.19.25-.24.25H344a.89.89,0,0,0-.57,0,3.53,3.53,0,0,1-.56.07.72.72,0,0,0,.16.25q.24.24,0,.24c-.16.32-.38.46-.65.41a.71.71,0,0,1-.57-.41h-.24c-.27.44-.54.57-.8.41a2.08,2.08,0,0,1-.65-.57,5.73,5.73,0,0,1-.81-.16,3.75,3.75,0,0,0-.73-.17l-.24-4.84-.4-.08a1.22,1.22,0,0,0-.49-.16l-.16.16a.24.24,0,0,1-.16.08c-.06,0-.08,0-.08.08-.22.11-.62.27-1.21.49s-.95.35-1.05.4a.51.51,0,0,1-.32.24c-.12,0-.22.08-.33.24a4.58,4.58,0,0,0-.65.09,1,1,0,0,0-.56.24c0-.11-.22,0-.49.24s-.35.4-.4.4a1.67,1.67,0,0,0-.41.16,2,2,0,0,1-.4.09,3.27,3.27,0,0,1-.73.32l-.72.32a5.08,5.08,0,0,0-.65.17c-.32,0-.7.13-1.13.23a9.15,9.15,0,0,0-1.13.25l-.65.08a.72.72,0,0,1-.32.16h-.24l-5.33.57a3.51,3.51,0,0,1-.49.16.77.77,0,0,1-.48,0l-.89-.09a11.19,11.19,0,0,1-1.21-.15c-.38,0-.84,0-1.38-.08a6.1,6.1,0,0,1-1-.25,3.41,3.41,0,0,1-.72-.16,1.68,1.68,0,0,1-.65-.32.5.5,0,0,1-.48-.33l-.65-.24c-.27-.1-.59-.21-1-.32a8,8,0,0,0-1-.41,1.86,1.86,0,0,0-.48-.24,1.11,1.11,0,0,0-.33-.16c-.11-.05-.16-.1-.16-.16-.21-.22-.54-.51-1-.89l-.72-.73a3.19,3.19,0,0,1-.41-.48,5.24,5.24,0,0,0-.4-.48c-.06-.11-.19-.33-.41-.65a2,2,0,0,1-.24-.65.24.24,0,0,0-.08-.16l-.16-.16a11.11,11.11,0,0,0-.73-1.05c-.27-.49-.43-.78-.48-.89a.77.77,0,0,1-.16-.24,1,1,0,0,1-.09-.49.72.72,0,0,1-.08-.32c0-.05,0-.08-.08-.08v-.24l-.16-.33a.72.72,0,0,1-.08-.32c0-.16-.13-.49-.24-1a6.62,6.62,0,0,0-.24-1c0-.05,0-.27-.08-.65a2.43,2.43,0,0,0-.08-.8,10.33,10.33,0,0,1-.41-1.54,6.71,6.71,0,0,0-.32-1.46Z" transform="translate(-237.32 -367.71)"/><path class="cls-3" d="M320.1,395.13l.24-1.29a5.54,5.54,0,0,1,.25-1,.87.87,0,0,1,.16-.33,3.88,3.88,0,0,0,.32-.48c0-.05.05-.13.16-.24l.33-.32A2.88,2.88,0,0,0,322,391a4.72,4.72,0,0,1,.56-.4,1.08,1.08,0,0,1,.25-.16.8.8,0,0,1,.32-.16,1.28,1.28,0,0,1,.81-.16q.64-.09.81-.09t1,.09a3.38,3.38,0,0,1,1,.08.29.29,0,0,1,.32.32.91.91,0,0,1,.32.41.74.74,0,0,1,.16.32,2.82,2.82,0,0,1,.41,1,3.61,3.61,0,0,1,.24.82,4.67,4.67,0,0,1-.16.81,3,3,0,0,1-.33.8.74.74,0,0,1-.16.4,2.44,2.44,0,0,1-.32.41,4.44,4.44,0,0,0-.48.64,1.94,1.94,0,0,1-.49.49,7.07,7.07,0,0,1-.73.56,3.57,3.57,0,0,1-.8.49,1.32,1.32,0,0,0-.41.16.74.74,0,0,1-.4.16h-1.05a5.2,5.2,0,0,1-.57-.07,1.25,1.25,0,0,0-.48-.17,1.09,1.09,0,0,1-.65-.24,2.69,2.69,0,0,1-.48-.24,3.59,3.59,0,0,1-.33-.73,6.5,6.5,0,0,0-.32-1.13v-.33" transform="translate(-237.32 -367.71)"/></svg>